# xmcd CD database file
#
# Track frame offsets:
#	150
#	12950
#	27460
#	46915
#	62785
#	80047
#	92747
#	115395
#	132587
#	153470
#	172825
#	189870
#	206209
#	222987
#	237030
#
# Disc length: 3406 seconds
#
# Revision: 1
# Processed by: cddbd v1.5.1PL0 Copyright (c) Steve Scherf et al.
# Submitted via: cdripper 1.0.7
#
DISCID=cf0d4c0f
DTITLE=Nolan Struck and Edward King - Brother To Brother
DYEAR=1994
DGENRE=Blues
TTITLE0=Blues With A Feeling - Nolan Struck
TTITLE1=Black Night - Nolan Struck
TTITLE2=Blues For Mississippi - Nolan Struck
TTITLE3=Miss Misery - Nolan Struck
TTITLE4=Mystery Train - Nolan Struck
TTITLE5=Reconsider Baby - Nolan Struck
TTITLE6=How Do You Wnat Your Thrill - Nolan Struck
TTITLE7=You Been Cheating On Me - Nolan Struck
TTITLE8=Rock Me Baby - King Edward
TTITLE9=You Don't Love Me - King Edward
TTITLE10=Mr. Charlie - King Edward
TTITLE11=Looking Good Again Tonight - King Edward
TTITLE12=Life Been Good To Me - King Edward
TTITLE13=You Got Something Good Going For You - King Edward
TTITLE14=You Don't know What Love Is - King Edward
EXTD=YEAR: 1994
EXTT0=
EXTT1=
EXTT2=
EXTT3=
EXTT4=
EXTT5=
EXTT6=
EXTT7=
EXTT8=
EXTT9=
EXTT10=
EXTT11=
EXTT12=
EXTT13=
EXTT14=
PLAYORDER=
